<svg xmlns="http://www.w3.org/2000/svg" xmlns:xlink="http://www.w3.org/1999/xlink" width="400" zoomAndPan="magnify" viewBox="0 0 300 187.499995" height="250" preserveAspectRatio="xMidYMid meet" version="1.0"><defs><g/><clipPath id="5d962a6f7c"><rect x="0" width="238" y="0" height="112"/></clipPath></defs><g transform="matrix(1, 0, 0, 1, 28, 56)"><g clip-path="url(#5d962a6f7c)"><g fill="#46e207" fill-opacity="0.302"><g transform="translate(8.00065, 90.197589)"><g><path d="M 2.203125 -48.125 L 9.921875 -49.546875 C 12.679688 -50.054688 15.046875 -49.734375 17.015625 -48.578125 C 18.984375 -47.429688 20.242188 -45.382812 20.796875 -42.4375 C 20.890625 -41.90625 20.957031 -41.332031 21 -40.71875 C 21.039062 -40.113281 21.070312 -39.5 21.09375 -38.875 L 21.171875 -32.1875 C 21.160156 -28.101562 20.335938 -25.113281 18.703125 -23.21875 C 17.078125 -21.332031 14.863281 -20.128906 12.0625 -19.609375 L 9.671875 -19.171875 L 9.875 -1.828125 L 2.640625 -0.484375 Z M 10.953125 -26.234375 C 11.835938 -26.398438 12.539062 -26.847656 13.0625 -27.578125 C 13.582031 -28.304688 13.847656 -29.535156 13.859375 -31.265625 L 13.8125 -38.46875 C 13.832031 -38.882812 13.820312 -39.203125 13.78125 -39.421875 C 13.738281 -39.640625 13.695312 -39.882812 13.65625 -40.15625 C 13.457031 -41.207031 13.085938 -41.953125 12.546875 -42.390625 C 12.003906 -42.835938 11.398438 -43.003906 10.734375 -42.890625 L 9.5 -42.65625 L 9.640625 -25.984375 Z M 10.953125 -26.234375 "/></g></g></g><g fill="#46e207" fill-opacity="0.302"><g transform="translate(29.421748, 86.237478)"><g><path d="M 12.78125 -1.6875 C 10.144531 -1.195312 7.890625 -1.523438 6.015625 -2.671875 C 4.140625 -3.828125 2.9375 -5.851562 2.40625 -8.75 C 2.3125 -9.238281 2.25 -9.765625 2.21875 -10.328125 C 2.1875 -10.890625 2.15625 -11.488281 2.125 -12.125 L 1.96875 -38.046875 C 1.925781 -41.734375 2.671875 -44.578125 4.203125 -46.578125 C 5.742188 -48.585938 7.828125 -49.835938 10.453125 -50.328125 C 13.085938 -50.816406 15.34375 -50.484375 17.21875 -49.328125 C 19.101562 -48.179688 20.3125 -46.160156 20.84375 -43.265625 C 20.9375 -42.765625 21 -42.234375 21.03125 -41.671875 C 21.0625 -41.117188 21.085938 -40.523438 21.109375 -39.890625 L 21.265625 -13.953125 C 21.316406 -10.273438 20.570312 -7.429688 19.03125 -5.421875 C 17.5 -3.421875 15.414062 -2.175781 12.78125 -1.6875 Z M 12.03125 -8.359375 C 12.644531 -8.472656 13.140625 -8.847656 13.515625 -9.484375 C 13.890625 -10.117188 14.066406 -11.140625 14.046875 -12.546875 L 13.828125 -39.90625 C 13.835938 -40.050781 13.832031 -40.3125 13.8125 -40.6875 C 13.789062 -41.070312 13.757812 -41.375 13.71875 -41.59375 C 13.5625 -42.476562 13.25 -43.066406 12.78125 -43.359375 C 12.3125 -43.660156 11.789062 -43.757812 11.21875 -43.65625 C 10.601562 -43.539062 10.101562 -43.164062 9.71875 -42.53125 C 9.34375 -41.894531 9.171875 -40.875 9.203125 -39.46875 L 9.421875 -12.09375 C 9.398438 -11.957031 9.398438 -11.695312 9.421875 -11.3125 C 9.453125 -10.9375 9.488281 -10.640625 9.53125 -10.421875 C 9.695312 -9.535156 10.007812 -8.941406 10.46875 -8.640625 C 10.9375 -8.347656 11.457031 -8.253906 12.03125 -8.359375 Z M 12.03125 -8.359375 "/></g></g></g><g fill="#46e207" fill-opacity="0.302"><g transform="translate(51.831524, 82.09459)"><g><path d="M 0.234375 -47.765625 L 7.359375 -49.078125 L 9.53125 -22.546875 C 9.632812 -21.242188 9.710938 -20 9.765625 -18.8125 C 9.828125 -17.625 9.898438 -16.5625 9.984375 -15.625 C 10.066406 -14.488281 10.148438 -13.429688 10.234375 -12.453125 L 10.4375 -12.5 L 12.96875 -50.109375 L 20.203125 -51.453125 L 22.953125 -14.8125 L 23.15625 -14.84375 C 23.15625 -14.84375 23.164062 -15.148438 23.1875 -15.765625 C 23.207031 -16.390625 23.25 -17.160156 23.3125 -18.078125 C 23.375 -18.992188 23.4375 -19.992188 23.5 -21.078125 C 23.570312 -22.160156 23.65625 -23.1875 23.75 -24.15625 L 25.8125 -52.484375 L 33.203125 -53.859375 L 28.015625 -5.171875 L 19.046875 -3.515625 L 17.515625 -25.046875 C 17.421875 -26.117188 17.320312 -27.335938 17.21875 -28.703125 C 17.125 -30.066406 17.054688 -31.363281 17.015625 -32.59375 C 16.929688 -34.039062 16.847656 -35.460938 16.765625 -36.859375 L 16.5625 -36.8125 C 16.46875 -35.382812 16.378906 -33.929688 16.296875 -32.453125 C 16.203125 -31.210938 16.125 -29.894531 16.0625 -28.5 C 16.007812 -27.101562 15.945312 -25.851562 15.875 -24.75 L 14.4375 -2.671875 L 5.265625 -0.96875 Z M 0.234375 -47.765625 "/></g></g></g><g fill="#46e207" fill-opacity="0.302"><g transform="translate(84.787079, 76.002107)"><g><path d="M 2.203125 -48.125 L 16.390625 -50.75 L 16.40625 -43.59375 L 9.5 -42.3125 L 9.625 -29.375 L 15.890625 -30.53125 L 15.921875 -23.40625 L 9.671875 -22.25 L 9.796875 -8.96875 L 17.046875 -10.3125 L 17.125 -3.171875 L 2.640625 -0.484375 Z M 2.203125 -48.125 "/></g></g></g><g fill="#46e207" fill-opacity="0.302"><g transform="translate(101.923959, 72.834018)"><g><path d="M 2.203125 -48.125 L 9.921875 -49.546875 C 12.679688 -50.054688 15.046875 -49.734375 17.015625 -48.578125 C 18.984375 -47.429688 20.242188 -45.382812 20.796875 -42.4375 C 20.890625 -41.90625 20.957031 -41.332031 21 -40.71875 C 21.039062 -40.113281 21.070312 -39.5 21.09375 -38.875 L 21.203125 -33.921875 C 21.179688 -31.585938 20.894531 -29.625 20.34375 -28.03125 C 19.800781 -26.4375 19.03125 -25.128906 18.03125 -24.109375 L 22.421875 -4.140625 L 14.96875 -2.765625 C 14.65625 -4.210938 14.296875 -5.90625 13.890625 -7.84375 C 13.484375 -9.789062 13.097656 -11.671875 12.734375 -13.484375 C 12.378906 -15.304688 12.054688 -16.929688 11.765625 -18.359375 C 11.484375 -19.785156 11.300781 -20.71875 11.21875 -21.15625 L 9.71875 -20.875 L 9.875 -1.828125 L 2.640625 -0.484375 Z M 11 -27.9375 C 11.882812 -28.101562 12.585938 -28.550781 13.109375 -29.28125 C 13.628906 -30.007812 13.882812 -31.234375 13.875 -32.953125 L 13.8125 -38.46875 C 13.832031 -38.882812 13.820312 -39.203125 13.78125 -39.421875 C 13.738281 -39.640625 13.695312 -39.882812 13.65625 -40.15625 C 13.457031 -41.207031 13.085938 -41.953125 12.546875 -42.390625 C 12.003906 -42.835938 11.398438 -43.003906 10.734375 -42.890625 L 9.5 -42.65625 L 9.671875 -27.6875 Z M 11 -27.9375 "/></g></g></g><g fill="#46e207" fill-opacity="0.302"><g transform="translate(124.004166, 68.752057)"><g><path d="M 2.203125 -48.125 L 9.921875 -49.546875 C 12.679688 -50.054688 15.046875 -49.734375 17.015625 -48.578125 C 18.984375 -47.429688 20.242188 -45.382812 20.796875 -42.4375 C 20.890625 -41.90625 20.957031 -41.332031 21 -40.71875 C 21.039062 -40.113281 21.070312 -39.5 21.09375 -38.875 L 21.171875 -32.1875 C 21.160156 -28.101562 20.335938 -25.113281 18.703125 -23.21875 C 17.078125 -21.332031 14.863281 -20.128906 12.0625 -19.609375 L 9.671875 -19.171875 L 9.875 -1.828125 L 2.640625 -0.484375 Z M 10.953125 -26.234375 C 11.835938 -26.398438 12.539062 -26.847656 13.0625 -27.578125 C 13.582031 -28.304688 13.847656 -29.535156 13.859375 -31.265625 L 13.8125 -38.46875 C 13.832031 -38.882812 13.820312 -39.203125 13.78125 -39.421875 C 13.738281 -39.640625 13.695312 -39.882812 13.65625 -40.15625 C 13.457031 -41.207031 13.085938 -41.953125 12.546875 -42.390625 C 12.003906 -42.835938 11.398438 -43.003906 10.734375 -42.890625 L 9.5 -42.65625 L 9.640625 -25.984375 Z M 10.953125 -26.234375 "/></g></g></g><g fill="#46e207" fill-opacity="0.302"><g transform="translate(144.107036, 65.035646)"><g><path d="M 6.171875 -48.859375 L 16.046875 -50.6875 L 22.078125 -4.078125 L 14.96875 -2.765625 L 13.921875 -12.125 L 8.453125 -11.109375 L 7.71875 -1.421875 L 0.328125 -0.0625 Z M 13.21875 -19.140625 L 11.546875 -34.515625 C 11.398438 -36.035156 11.296875 -37.390625 11.234375 -38.578125 C 11.171875 -39.773438 11.132812 -40.894531 11.125 -41.9375 L 10.859375 -41.890625 C 10.835938 -40.835938 10.78125 -39.703125 10.6875 -38.484375 C 10.59375 -37.265625 10.484375 -35.867188 10.359375 -34.296875 L 9.078125 -18.375 Z M 13.21875 -19.140625 "/></g></g></g><g fill="#46e207" fill-opacity="0.302"><g transform="translate(165.198595, 61.136456)"><g><path d="M 12.390625 -1.609375 C 9.703125 -1.109375 7.492188 -1.484375 5.765625 -2.734375 C 4.035156 -3.984375 2.929688 -5.90625 2.453125 -8.5 C 2.285156 -9.375 2.203125 -10.445312 2.203125 -11.71875 L 1.96875 -38.40625 C 1.957031 -40.207031 2.160156 -41.804688 2.578125 -43.203125 C 2.992188 -44.609375 3.566406 -45.796875 4.296875 -46.765625 C 5.035156 -47.742188 5.90625 -48.519531 6.90625 -49.09375 C 7.90625 -49.664062 8.984375 -50.054688 10.140625 -50.265625 C 12.941406 -50.785156 15.203125 -50.375 16.921875 -49.03125 C 18.648438 -47.695312 19.742188 -45.796875 20.203125 -43.328125 C 20.359375 -42.503906 20.445312 -41.457031 20.46875 -40.1875 L 20.4375 -35.484375 L 13.1875 -34.140625 L 13.1875 -40.078125 C 13.207031 -40.390625 13.191406 -40.675781 13.140625 -40.9375 C 13.097656 -41.207031 13.054688 -41.453125 13.015625 -41.671875 C 12.859375 -42.503906 12.59375 -43.054688 12.21875 -43.328125 C 11.851562 -43.597656 11.472656 -43.695312 11.078125 -43.625 C 10.460938 -43.507812 9.976562 -43.191406 9.625 -42.671875 C 9.269531 -42.160156 9.113281 -41.179688 9.15625 -39.734375 L 9.4375 -11.640625 C 9.425781 -10.953125 9.457031 -10.40625 9.53125 -10 C 9.65625 -9.300781 9.890625 -8.8125 10.234375 -8.53125 C 10.585938 -8.257812 10.984375 -8.164062 11.421875 -8.25 C 11.910156 -8.34375 12.367188 -8.628906 12.796875 -9.109375 C 13.234375 -9.597656 13.445312 -10.613281 13.4375 -12.15625 L 13.359375 -19.5 L 20.609375 -20.84375 L 20.65625 -13.703125 C 20.664062 -10.429688 19.988281 -7.726562 18.625 -5.59375 C 17.269531 -3.457031 15.191406 -2.128906 12.390625 -1.609375 Z M 12.390625 -1.609375 "/></g></g></g><g fill="#46e207" fill-opacity="0.302"><g transform="translate(186.619693, 57.176345)"><g><path d="M 2.203125 -48.125 L 9.453125 -49.46875 L 9.609375 -28.359375 L 10.9375 -28.609375 L 15.734375 -50.625 L 23.25 -52.015625 L 17.6875 -27.125 L 24 -4.4375 L 16.46875 -3.046875 L 10.984375 -23.484375 L 9.65625 -23.25 L 9.875 -1.828125 L 2.640625 -0.484375 Z M 2.203125 -48.125 "/></g></g></g><g fill="#46e207" fill-opacity="0.502"><g transform="translate(16.21041, 91.871761)"><g><path d="M 2.203125 -48.125 L 9.921875 -49.546875 C 12.679688 -50.054688 15.046875 -49.734375 17.015625 -48.578125 C 18.984375 -47.429688 20.242188 -45.382812 20.796875 -42.4375 C 20.890625 -41.90625 20.957031 -41.332031 21 -40.71875 C 21.039062 -40.113281 21.070312 -39.5 21.09375 -38.875 L 21.171875 -32.1875 C 21.160156 -28.101562 20.335938 -25.113281 18.703125 -23.21875 C 17.078125 -21.332031 14.863281 -20.128906 12.0625 -19.609375 L 9.671875 -19.171875 L 9.875 -1.828125 L 2.640625 -0.484375 Z M 10.953125 -26.234375 C 11.835938 -26.398438 12.539062 -26.847656 13.0625 -27.578125 C 13.582031 -28.304688 13.847656 -29.535156 13.859375 -31.265625 L 13.8125 -38.46875 C 13.832031 -38.882812 13.820312 -39.203125 13.78125 -39.421875 C 13.738281 -39.640625 13.695312 -39.882812 13.65625 -40.15625 C 13.457031 -41.207031 13.085938 -41.953125 12.546875 -42.390625 C 12.003906 -42.835938 11.398438 -43.003906 10.734375 -42.890625 L 9.5 -42.65625 L 9.640625 -25.984375 Z M 10.953125 -26.234375 "/></g></g></g><g fill="#46e207" fill-opacity="0.502"><g transform="translate(37.631508, 87.91165)"><g><path d="M 12.78125 -1.6875 C 10.144531 -1.195312 7.890625 -1.523438 6.015625 -2.671875 C 4.140625 -3.828125 2.9375 -5.851562 2.40625 -8.75 C 2.3125 -9.238281 2.25 -9.765625 2.21875 -10.328125 C 2.1875 -10.890625 2.15625 -11.488281 2.125 -12.125 L 1.96875 -38.046875 C 1.925781 -41.734375 2.671875 -44.578125 4.203125 -46.578125 C 5.742188 -48.585938 7.828125 -49.835938 10.453125 -50.328125 C 13.085938 -50.816406 15.34375 -50.484375 17.21875 -49.328125 C 19.101562 -48.179688 20.3125 -46.160156 20.84375 -43.265625 C 20.9375 -42.765625 21 -42.234375 21.03125 -41.671875 C 21.0625 -41.117188 21.085938 -40.523438 21.109375 -39.890625 L 21.265625 -13.953125 C 21.316406 -10.273438 20.570312 -7.429688 19.03125 -5.421875 C 17.5 -3.421875 15.414062 -2.175781 12.78125 -1.6875 Z M 12.03125 -8.359375 C 12.644531 -8.472656 13.140625 -8.847656 13.515625 -9.484375 C 13.890625 -10.117188 14.066406 -11.140625 14.046875 -12.546875 L 13.828125 -39.90625 C 13.835938 -40.050781 13.832031 -40.3125 13.8125 -40.6875 C 13.789062 -41.070312 13.757812 -41.375 13.71875 -41.59375 C 13.5625 -42.476562 13.25 -43.066406 12.78125 -43.359375 C 12.3125 -43.660156 11.789062 -43.757812 11.21875 -43.65625 C 10.601562 -43.539062 10.101562 -43.164062 9.71875 -42.53125 C 9.34375 -41.894531 9.171875 -40.875 9.203125 -39.46875 L 9.421875 -12.09375 C 9.398438 -11.957031 9.398438 -11.695312 9.421875 -11.3125 C 9.453125 -10.9375 9.488281 -10.640625 9.53125 -10.421875 C 9.695312 -9.535156 10.007812 -8.941406 10.46875 -8.640625 C 10.9375 -8.347656 11.457031 -8.253906 12.03125 -8.359375 Z M 12.03125 -8.359375 "/></g></g></g><g fill="#46e207" fill-opacity="0.502"><g transform="translate(60.041284, 83.768762)"><g><path d="M 0.234375 -47.765625 L 7.359375 -49.078125 L 9.53125 -22.546875 C 9.632812 -21.242188 9.710938 -20 9.765625 -18.8125 C 9.828125 -17.625 9.898438 -16.5625 9.984375 -15.625 C 10.066406 -14.488281 10.148438 -13.429688 10.234375 -12.453125 L 10.4375 -12.5 L 12.96875 -50.109375 L 20.203125 -51.453125 L 22.953125 -14.8125 L 23.15625 -14.84375 C 23.15625 -14.84375 23.164062 -15.148438 23.1875 -15.765625 C 23.207031 -16.390625 23.25 -17.160156 23.3125 -18.078125 C 23.375 -18.992188 23.4375 -19.992188 23.5 -21.078125 C 23.570312 -22.160156 23.65625 -23.1875 23.75 -24.15625 L 25.8125 -52.484375 L 33.203125 -53.859375 L 28.015625 -5.171875 L 19.046875 -3.515625 L 17.515625 -25.046875 C 17.421875 -26.117188 17.320312 -27.335938 17.21875 -28.703125 C 17.125 -30.066406 17.054688 -31.363281 17.015625 -32.59375 C 16.929688 -34.039062 16.847656 -35.460938 16.765625 -36.859375 L 16.5625 -36.8125 C 16.46875 -35.382812 16.378906 -33.929688 16.296875 -32.453125 C 16.203125 -31.210938 16.125 -29.894531 16.0625 -28.5 C 16.007812 -27.101562 15.945312 -25.851562 15.875 -24.75 L 14.4375 -2.671875 L 5.265625 -0.96875 Z M 0.234375 -47.765625 "/></g></g></g><g fill="#46e207" fill-opacity="0.502"><g transform="translate(92.996839, 77.676279)"><g><path d="M 2.203125 -48.125 L 16.390625 -50.75 L 16.40625 -43.59375 L 9.5 -42.3125 L 9.625 -29.375 L 15.890625 -30.53125 L 15.921875 -23.40625 L 9.671875 -22.25 L 9.796875 -8.96875 L 17.046875 -10.3125 L 17.125 -3.171875 L 2.640625 -0.484375 Z M 2.203125 -48.125 "/></g></g></g><g fill="#46e207" fill-opacity="0.502"><g transform="translate(110.133719, 74.50819)"><g><path d="M 2.203125 -48.125 L 9.921875 -49.546875 C 12.679688 -50.054688 15.046875 -49.734375 17.015625 -48.578125 C 18.984375 -47.429688 20.242188 -45.382812 20.796875 -42.4375 C 20.890625 -41.90625 20.957031 -41.332031 21 -40.71875 C 21.039062 -40.113281 21.070312 -39.5 21.09375 -38.875 L 21.203125 -33.921875 C 21.179688 -31.585938 20.894531 -29.625 20.34375 -28.03125 C 19.800781 -26.4375 19.03125 -25.128906 18.03125 -24.109375 L 22.421875 -4.140625 L 14.96875 -2.765625 C 14.65625 -4.210938 14.296875 -5.90625 13.890625 -7.84375 C 13.484375 -9.789062 13.097656 -11.671875 12.734375 -13.484375 C 12.378906 -15.304688 12.054688 -16.929688 11.765625 -18.359375 C 11.484375 -19.785156 11.300781 -20.71875 11.21875 -21.15625 L 9.71875 -20.875 L 9.875 -1.828125 L 2.640625 -0.484375 Z M 11 -27.9375 C 11.882812 -28.101562 12.585938 -28.550781 13.109375 -29.28125 C 13.628906 -30.007812 13.882812 -31.234375 13.875 -32.953125 L 13.8125 -38.46875 C 13.832031 -38.882812 13.820312 -39.203125 13.78125 -39.421875 C 13.738281 -39.640625 13.695312 -39.882812 13.65625 -40.15625 C 13.457031 -41.207031 13.085938 -41.953125 12.546875 -42.390625 C 12.003906 -42.835938 11.398438 -43.003906 10.734375 -42.890625 L 9.5 -42.65625 L 9.671875 -27.6875 Z M 11 -27.9375 "/></g></g></g><g fill="#46e207" fill-opacity="0.502"><g transform="translate(132.213926, 70.426229)"><g><path d="M 2.203125 -48.125 L 9.921875 -49.546875 C 12.679688 -50.054688 15.046875 -49.734375 17.015625 -48.578125 C 18.984375 -47.429688 20.242188 -45.382812 20.796875 -42.4375 C 20.890625 -41.90625 20.957031 -41.332031 21 -40.71875 C 21.039062 -40.113281 21.070312 -39.5 21.09375 -38.875 L 21.171875 -32.1875 C 21.160156 -28.101562 20.335938 -25.113281 18.703125 -23.21875 C 17.078125 -21.332031 14.863281 -20.128906 12.0625 -19.609375 L 9.671875 -19.171875 L 9.875 -1.828125 L 2.640625 -0.484375 Z M 10.953125 -26.234375 C 11.835938 -26.398438 12.539062 -26.847656 13.0625 -27.578125 C 13.582031 -28.304688 13.847656 -29.535156 13.859375 -31.265625 L 13.8125 -38.46875 C 13.832031 -38.882812 13.820312 -39.203125 13.78125 -39.421875 C 13.738281 -39.640625 13.695312 -39.882812 13.65625 -40.15625 C 13.457031 -41.207031 13.085938 -41.953125 12.546875 -42.390625 C 12.003906 -42.835938 11.398438 -43.003906 10.734375 -42.890625 L 9.5 -42.65625 L 9.640625 -25.984375 Z M 10.953125 -26.234375 "/></g></g></g><g fill="#46e207" fill-opacity="0.502"><g transform="translate(152.316795, 66.709818)"><g><path d="M 6.171875 -48.859375 L 16.046875 -50.6875 L 22.078125 -4.078125 L 14.96875 -2.765625 L 13.921875 -12.125 L 8.453125 -11.109375 L 7.71875 -1.421875 L 0.328125 -0.0625 Z M 13.21875 -19.140625 L 11.546875 -34.515625 C 11.398438 -36.035156 11.296875 -37.390625 11.234375 -38.578125 C 11.171875 -39.773438 11.132812 -40.894531 11.125 -41.9375 L 10.859375 -41.890625 C 10.835938 -40.835938 10.78125 -39.703125 10.6875 -38.484375 C 10.59375 -37.265625 10.484375 -35.867188 10.359375 -34.296875 L 9.078125 -18.375 Z M 13.21875 -19.140625 "/></g></g></g><g fill="#46e207" fill-opacity="0.502"><g transform="translate(173.408355, 62.810629)"><g><path d="M 12.390625 -1.609375 C 9.703125 -1.109375 7.492188 -1.484375 5.765625 -2.734375 C 4.035156 -3.984375 2.929688 -5.90625 2.453125 -8.5 C 2.285156 -9.375 2.203125 -10.445312 2.203125 -11.71875 L 1.96875 -38.40625 C 1.957031 -40.207031 2.160156 -41.804688 2.578125 -43.203125 C 2.992188 -44.609375 3.566406 -45.796875 4.296875 -46.765625 C 5.035156 -47.742188 5.90625 -48.519531 6.90625 -49.09375 C 7.90625 -49.664062 8.984375 -50.054688 10.140625 -50.265625 C 12.941406 -50.785156 15.203125 -50.375 16.921875 -49.03125 C 18.648438 -47.695312 19.742188 -45.796875 20.203125 -43.328125 C 20.359375 -42.503906 20.445312 -41.457031 20.46875 -40.1875 L 20.4375 -35.484375 L 13.1875 -34.140625 L 13.1875 -40.078125 C 13.207031 -40.390625 13.191406 -40.675781 13.140625 -40.9375 C 13.097656 -41.207031 13.054688 -41.453125 13.015625 -41.671875 C 12.859375 -42.503906 12.59375 -43.054688 12.21875 -43.328125 C 11.851562 -43.597656 11.472656 -43.695312 11.078125 -43.625 C 10.460938 -43.507812 9.976562 -43.191406 9.625 -42.671875 C 9.269531 -42.160156 9.113281 -41.179688 9.15625 -39.734375 L 9.4375 -11.640625 C 9.425781 -10.953125 9.457031 -10.40625 9.53125 -10 C 9.65625 -9.300781 9.890625 -8.8125 10.234375 -8.53125 C 10.585938 -8.257812 10.984375 -8.164062 11.421875 -8.25 C 11.910156 -8.34375 12.367188 -8.628906 12.796875 -9.109375 C 13.234375 -9.597656 13.445312 -10.613281 13.4375 -12.15625 L 13.359375 -19.5 L 20.609375 -20.84375 L 20.65625 -13.703125 C 20.664062 -10.429688 19.988281 -7.726562 18.625 -5.59375 C 17.269531 -3.457031 15.191406 -2.128906 12.390625 -1.609375 Z M 12.390625 -1.609375 "/></g></g></g><g fill="#46e207" fill-opacity="0.502"><g transform="translate(194.829453, 58.850517)"><g><path d="M 2.203125 -48.125 L 9.453125 -49.46875 L 9.609375 -28.359375 L 10.9375 -28.609375 L 15.734375 -50.625 L 23.25 -52.015625 L 17.6875 -27.125 L 24 -4.4375 L 16.46875 -3.046875 L 10.984375 -23.484375 L 9.65625 -23.25 L 9.875 -1.828125 L 2.640625 -0.484375 Z M 2.203125 -48.125 "/></g></g></g><g fill="#000000" fill-opacity="1"><g transform="translate(24.420167, 93.545936)"><g><path d="M 2.203125 -48.125 L 9.921875 -49.546875 C 12.679688 -50.054688 15.046875 -49.734375 17.015625 -48.578125 C 18.984375 -47.429688 20.242188 -45.382812 20.796875 -42.4375 C 20.890625 -41.90625 20.957031 -41.332031 21 -40.71875 C 21.039062 -40.113281 21.070312 -39.5 21.09375 -38.875 L 21.171875 -32.1875 C 21.160156 -28.101562 20.335938 -25.113281 18.703125 -23.21875 C 17.078125 -21.332031 14.863281 -20.128906 12.0625 -19.609375 L 9.671875 -19.171875 L 9.875 -1.828125 L 2.640625 -0.484375 Z M 10.953125 -26.234375 C 11.835938 -26.398438 12.539062 -26.847656 13.0625 -27.578125 C 13.582031 -28.304688 13.847656 -29.535156 13.859375 -31.265625 L 13.8125 -38.46875 C 13.832031 -38.882812 13.820312 -39.203125 13.78125 -39.421875 C 13.738281 -39.640625 13.695312 -39.882812 13.65625 -40.15625 C 13.457031 -41.207031 13.085938 -41.953125 12.546875 -42.390625 C 12.003906 -42.835938 11.398438 -43.003906 10.734375 -42.890625 L 9.5 -42.65625 L 9.640625 -25.984375 Z M 10.953125 -26.234375 "/></g></g></g><g fill="#000000" fill-opacity="1"><g transform="translate(45.841266, 89.585824)"><g><path d="M 12.78125 -1.6875 C 10.144531 -1.195312 7.890625 -1.523438 6.015625 -2.671875 C 4.140625 -3.828125 2.9375 -5.851562 2.40625 -8.75 C 2.3125 -9.238281 2.25 -9.765625 2.21875 -10.328125 C 2.1875 -10.890625 2.15625 -11.488281 2.125 -12.125 L 1.96875 -38.046875 C 1.925781 -41.734375 2.671875 -44.578125 4.203125 -46.578125 C 5.742188 -48.585938 7.828125 -49.835938 10.453125 -50.328125 C 13.085938 -50.816406 15.34375 -50.484375 17.21875 -49.328125 C 19.101562 -48.179688 20.3125 -46.160156 20.84375 -43.265625 C 20.9375 -42.765625 21 -42.234375 21.03125 -41.671875 C 21.0625 -41.117188 21.085938 -40.523438 21.109375 -39.890625 L 21.265625 -13.953125 C 21.316406 -10.273438 20.570312 -7.429688 19.03125 -5.421875 C 17.5 -3.421875 15.414062 -2.175781 12.78125 -1.6875 Z M 12.03125 -8.359375 C 12.644531 -8.472656 13.140625 -8.847656 13.515625 -9.484375 C 13.890625 -10.117188 14.066406 -11.140625 14.046875 -12.546875 L 13.828125 -39.90625 C 13.835938 -40.050781 13.832031 -40.3125 13.8125 -40.6875 C 13.789062 -41.070312 13.757812 -41.375 13.71875 -41.59375 C 13.5625 -42.476562 13.25 -43.066406 12.78125 -43.359375 C 12.3125 -43.660156 11.789062 -43.757812 11.21875 -43.65625 C 10.601562 -43.539062 10.101562 -43.164062 9.71875 -42.53125 C 9.34375 -41.894531 9.171875 -40.875 9.203125 -39.46875 L 9.421875 -12.09375 C 9.398438 -11.957031 9.398438 -11.695312 9.421875 -11.3125 C 9.453125 -10.9375 9.488281 -10.640625 9.53125 -10.421875 C 9.695312 -9.535156 10.007812 -8.941406 10.46875 -8.640625 C 10.9375 -8.347656 11.457031 -8.253906 12.03125 -8.359375 Z M 12.03125 -8.359375 "/></g></g></g><g fill="#000000" fill-opacity="1"><g transform="translate(68.251041, 85.442936)"><g><path d="M 0.234375 -47.765625 L 7.359375 -49.078125 L 9.53125 -22.546875 C 9.632812 -21.242188 9.710938 -20 9.765625 -18.8125 C 9.828125 -17.625 9.898438 -16.5625 9.984375 -15.625 C 10.066406 -14.488281 10.148438 -13.429688 10.234375 -12.453125 L 10.4375 -12.5 L 12.96875 -50.109375 L 20.203125 -51.453125 L 22.953125 -14.8125 L 23.15625 -14.84375 C 23.15625 -14.84375 23.164062 -15.148438 23.1875 -15.765625 C 23.207031 -16.390625 23.25 -17.160156 23.3125 -18.078125 C 23.375 -18.992188 23.4375 -19.992188 23.5 -21.078125 C 23.570312 -22.160156 23.65625 -23.1875 23.75 -24.15625 L 25.8125 -52.484375 L 33.203125 -53.859375 L 28.015625 -5.171875 L 19.046875 -3.515625 L 17.515625 -25.046875 C 17.421875 -26.117188 17.320312 -27.335938 17.21875 -28.703125 C 17.125 -30.066406 17.054688 -31.363281 17.015625 -32.59375 C 16.929688 -34.039062 16.847656 -35.460938 16.765625 -36.859375 L 16.5625 -36.8125 C 16.46875 -35.382812 16.378906 -33.929688 16.296875 -32.453125 C 16.203125 -31.210938 16.125 -29.894531 16.0625 -28.5 C 16.007812 -27.101562 15.945312 -25.851562 15.875 -24.75 L 14.4375 -2.671875 L 5.265625 -0.96875 Z M 0.234375 -47.765625 "/></g></g></g><g fill="#000000" fill-opacity="1"><g transform="translate(101.206597, 79.350454)"><g><path d="M 2.203125 -48.125 L 16.390625 -50.75 L 16.40625 -43.59375 L 9.5 -42.3125 L 9.625 -29.375 L 15.890625 -30.53125 L 15.921875 -23.40625 L 9.671875 -22.25 L 9.796875 -8.96875 L 17.046875 -10.3125 L 17.125 -3.171875 L 2.640625 -0.484375 Z M 2.203125 -48.125 "/></g></g></g><g fill="#000000" fill-opacity="1"><g transform="translate(118.343477, 76.182364)"><g><path d="M 2.203125 -48.125 L 9.921875 -49.546875 C 12.679688 -50.054688 15.046875 -49.734375 17.015625 -48.578125 C 18.984375 -47.429688 20.242188 -45.382812 20.796875 -42.4375 C 20.890625 -41.90625 20.957031 -41.332031 21 -40.71875 C 21.039062 -40.113281 21.070312 -39.5 21.09375 -38.875 L 21.203125 -33.921875 C 21.179688 -31.585938 20.894531 -29.625 20.34375 -28.03125 C 19.800781 -26.4375 19.03125 -25.128906 18.03125 -24.109375 L 22.421875 -4.140625 L 14.96875 -2.765625 C 14.65625 -4.210938 14.296875 -5.90625 13.890625 -7.84375 C 13.484375 -9.789062 13.097656 -11.671875 12.734375 -13.484375 C 12.378906 -15.304688 12.054688 -16.929688 11.765625 -18.359375 C 11.484375 -19.785156 11.300781 -20.71875 11.21875 -21.15625 L 9.71875 -20.875 L 9.875 -1.828125 L 2.640625 -0.484375 Z M 11 -27.9375 C 11.882812 -28.101562 12.585938 -28.550781 13.109375 -29.28125 C 13.628906 -30.007812 13.882812 -31.234375 13.875 -32.953125 L 13.8125 -38.46875 C 13.832031 -38.882812 13.820312 -39.203125 13.78125 -39.421875 C 13.738281 -39.640625 13.695312 -39.882812 13.65625 -40.15625 C 13.457031 -41.207031 13.085938 -41.953125 12.546875 -42.390625 C 12.003906 -42.835938 11.398438 -43.003906 10.734375 -42.890625 L 9.5 -42.65625 L 9.671875 -27.6875 Z M 11 -27.9375 "/></g></g></g><g fill="#000000" fill-opacity="1"><g transform="translate(140.423683, 72.100404)"><g><path d="M 2.203125 -48.125 L 9.921875 -49.546875 C 12.679688 -50.054688 15.046875 -49.734375 17.015625 -48.578125 C 18.984375 -47.429688 20.242188 -45.382812 20.796875 -42.4375 C 20.890625 -41.90625 20.957031 -41.332031 21 -40.71875 C 21.039062 -40.113281 21.070312 -39.5 21.09375 -38.875 L 21.171875 -32.1875 C 21.160156 -28.101562 20.335938 -25.113281 18.703125 -23.21875 C 17.078125 -21.332031 14.863281 -20.128906 12.0625 -19.609375 L 9.671875 -19.171875 L 9.875 -1.828125 L 2.640625 -0.484375 Z M 10.953125 -26.234375 C 11.835938 -26.398438 12.539062 -26.847656 13.0625 -27.578125 C 13.582031 -28.304688 13.847656 -29.535156 13.859375 -31.265625 L 13.8125 -38.46875 C 13.832031 -38.882812 13.820312 -39.203125 13.78125 -39.421875 C 13.738281 -39.640625 13.695312 -39.882812 13.65625 -40.15625 C 13.457031 -41.207031 13.085938 -41.953125 12.546875 -42.390625 C 12.003906 -42.835938 11.398438 -43.003906 10.734375 -42.890625 L 9.5 -42.65625 L 9.640625 -25.984375 Z M 10.953125 -26.234375 "/></g></g></g><g fill="#000000" fill-opacity="1"><g transform="translate(160.526553, 68.383993)"><g><path d="M 6.171875 -48.859375 L 16.046875 -50.6875 L 22.078125 -4.078125 L 14.96875 -2.765625 L 13.921875 -12.125 L 8.453125 -11.109375 L 7.71875 -1.421875 L 0.328125 -0.0625 Z M 13.21875 -19.140625 L 11.546875 -34.515625 C 11.398438 -36.035156 11.296875 -37.390625 11.234375 -38.578125 C 11.171875 -39.773438 11.132812 -40.894531 11.125 -41.9375 L 10.859375 -41.890625 C 10.835938 -40.835938 10.78125 -39.703125 10.6875 -38.484375 C 10.59375 -37.265625 10.484375 -35.867188 10.359375 -34.296875 L 9.078125 -18.375 Z M 13.21875 -19.140625 "/></g></g></g><g fill="#000000" fill-opacity="1"><g transform="translate(181.618112, 64.484803)"><g><path d="M 12.390625 -1.609375 C 9.703125 -1.109375 7.492188 -1.484375 5.765625 -2.734375 C 4.035156 -3.984375 2.929688 -5.90625 2.453125 -8.5 C 2.285156 -9.375 2.203125 -10.445312 2.203125 -11.71875 L 1.96875 -38.40625 C 1.957031 -40.207031 2.160156 -41.804688 2.578125 -43.203125 C 2.992188 -44.609375 3.566406 -45.796875 4.296875 -46.765625 C 5.035156 -47.742188 5.90625 -48.519531 6.90625 -49.09375 C 7.90625 -49.664062 8.984375 -50.054688 10.140625 -50.265625 C 12.941406 -50.785156 15.203125 -50.375 16.921875 -49.03125 C 18.648438 -47.695312 19.742188 -45.796875 20.203125 -43.328125 C 20.359375 -42.503906 20.445312 -41.457031 20.46875 -40.1875 L 20.4375 -35.484375 L 13.1875 -34.140625 L 13.1875 -40.078125 C 13.207031 -40.390625 13.191406 -40.675781 13.140625 -40.9375 C 13.097656 -41.207031 13.054688 -41.453125 13.015625 -41.671875 C 12.859375 -42.503906 12.59375 -43.054688 12.21875 -43.328125 C 11.851562 -43.597656 11.472656 -43.695312 11.078125 -43.625 C 10.460938 -43.507812 9.976562 -43.191406 9.625 -42.671875 C 9.269531 -42.160156 9.113281 -41.179688 9.15625 -39.734375 L 9.4375 -11.640625 C 9.425781 -10.953125 9.457031 -10.40625 9.53125 -10 C 9.65625 -9.300781 9.890625 -8.8125 10.234375 -8.53125 C 10.585938 -8.257812 10.984375 -8.164062 11.421875 -8.25 C 11.910156 -8.34375 12.367188 -8.628906 12.796875 -9.109375 C 13.234375 -9.597656 13.445312 -10.613281 13.4375 -12.15625 L 13.359375 -19.5 L 20.609375 -20.84375 L 20.65625 -13.703125 C 20.664062 -10.429688 19.988281 -7.726562 18.625 -5.59375 C 17.269531 -3.457031 15.191406 -2.128906 12.390625 -1.609375 Z M 12.390625 -1.609375 "/></g></g></g><g fill="#000000" fill-opacity="1"><g transform="translate(203.039211, 60.524692)"><g><path d="M 2.203125 -48.125 L 9.453125 -49.46875 L 9.609375 -28.359375 L 10.9375 -28.609375 L 15.734375 -50.625 L 23.25 -52.015625 L 17.6875 -27.125 L 24 -4.4375 L 16.46875 -3.046875 L 10.984375 -23.484375 L 9.65625 -23.25 L 9.875 -1.828125 L 2.640625 -0.484375 Z M 2.203125 -48.125 "/></g></g></g></g></g><path fill="#000000" d="M 101.683594 47.570312 L 173.957031 35.246094 C 176.082031 34.886719 178.261719 35.382812 180.019531 36.628906 C 181.777344 37.875 182.96875 39.765625 183.332031 41.890625 L 186.0625 57.910156 C 186.421875 60.035156 185.925781 62.214844 184.679688 63.972656 C 183.433594 65.730469 181.542969 66.921875 179.417969 67.285156 L 107.144531 79.605469 C 102.722656 80.359375 98.523438 77.382812 97.769531 72.960938 L 95.039062 56.941406 C 94.285156 52.519531 97.261719 48.324219 101.683594 47.570312 Z M 101.683594 47.570312 " fill-opacity="1" fill-rule="nonzero"/><g fill="#ffffff" fill-opacity="1"><g transform="translate(105.766556, 70.185462)"><g><path d="M 2.171875 -0.671875 L 2 -1.6875 C 1.988281 -1.757812 2.003906 -1.832031 2.046875 -1.90625 C 2.097656 -1.976562 2.164062 -2.019531 2.25 -2.03125 L 6.296875 -2.734375 L 4.375 -14 L 0.328125 -13.296875 C 0.128906 -13.265625 0.0078125 -13.347656 -0.03125 -13.546875 L -0.203125 -14.5625 C -0.234375 -14.757812 -0.148438 -14.875 0.046875 -14.90625 L 9.734375 -16.5625 C 9.921875 -16.59375 10.03125 -16.507812 10.0625 -16.3125 L 10.234375 -15.296875 C 10.273438 -15.097656 10.203125 -14.984375 10.015625 -14.953125 L 5.96875 -14.265625 L 7.890625 -3 L 11.9375 -3.6875 C 12.019531 -3.695312 12.09375 -3.675781 12.15625 -3.625 C 12.21875 -3.570312 12.253906 -3.507812 12.265625 -3.4375 L 12.4375 -2.421875 C 12.46875 -2.222656 12.390625 -2.109375 12.203125 -2.078125 L 2.515625 -0.421875 C 2.316406 -0.390625 2.203125 -0.472656 2.171875 -0.671875 Z M 2.171875 -0.671875 "/></g></g></g><g fill="#ffffff" fill-opacity="1"><g transform="translate(120.048111, 67.750744)"><g><path d="M 1.390625 -3.40625 L 1.234375 -4.375 C 1.222656 -4.445312 1.242188 -4.519531 1.296875 -4.59375 C 1.347656 -4.664062 1.410156 -4.707031 1.484375 -4.71875 L 2.5 -4.890625 C 2.582031 -4.910156 2.65625 -4.890625 2.71875 -4.828125 C 2.789062 -4.773438 2.832031 -4.710938 2.84375 -4.640625 L 3 -3.671875 C 3.070312 -3.265625 3.273438 -2.941406 3.609375 -2.703125 C 3.953125 -2.472656 4.328125 -2.394531 4.734375 -2.46875 L 9.4375 -3.265625 C 9.84375 -3.335938 10.164062 -3.539062 10.40625 -3.875 C 10.644531 -4.207031 10.726562 -4.578125 10.65625 -4.984375 L 10.34375 -6.859375 C 10.269531 -7.273438 10.0625 -7.601562 9.71875 -7.84375 C 9.382812 -8.082031 9.015625 -8.164062 8.609375 -8.09375 L 3.90625 -7.296875 C 3.488281 -7.222656 3.078125 -7.234375 2.671875 -7.328125 C 2.273438 -7.421875 1.910156 -7.582031 1.578125 -7.8125 C 1.242188 -8.039062 0.960938 -8.332031 0.734375 -8.6875 C 0.515625 -9.039062 0.367188 -9.425781 0.296875 -9.84375 L -0.015625 -11.71875 C -0.0859375 -12.144531 -0.078125 -12.554688 0.015625 -12.953125 C 0.109375 -13.359375 0.269531 -13.722656 0.5 -14.046875 C 0.738281 -14.367188 1.03125 -14.644531 1.375 -14.875 C 1.726562 -15.113281 2.113281 -15.269531 2.53125 -15.34375 L 7.234375 -16.140625 C 7.648438 -16.210938 8.054688 -16.195312 8.453125 -16.09375 C 8.859375 -15.988281 9.226562 -15.820312 9.5625 -15.59375 C 9.894531 -15.363281 10.171875 -15.070312 10.390625 -14.71875 C 10.617188 -14.375 10.769531 -13.988281 10.84375 -13.5625 L 11 -12.59375 C 11.03125 -12.40625 10.945312 -12.296875 10.75 -12.265625 L 9.734375 -12.09375 C 9.546875 -12.0625 9.4375 -12.140625 9.40625 -12.328125 L 9.25 -13.296875 C 9.175781 -13.710938 8.96875 -14.039062 8.625 -14.28125 C 8.289062 -14.519531 7.921875 -14.601562 7.515625 -14.53125 L 2.8125 -13.734375 C 2.40625 -13.660156 2.082031 -13.453125 1.84375 -13.109375 C 1.601562 -12.773438 1.519531 -12.398438 1.59375 -11.984375 L 1.90625 -10.109375 C 1.976562 -9.703125 2.179688 -9.378906 2.515625 -9.140625 C 2.847656 -8.910156 3.21875 -8.832031 3.625 -8.90625 L 8.328125 -9.703125 C 8.742188 -9.773438 9.15625 -9.757812 9.5625 -9.65625 C 9.96875 -9.550781 10.335938 -9.382812 10.671875 -9.15625 C 11.003906 -8.925781 11.28125 -8.632812 11.5 -8.28125 C 11.71875 -7.9375 11.863281 -7.550781 11.9375 -7.125 L 12.25 -5.25 C 12.320312 -4.832031 12.3125 -4.421875 12.21875 -4.015625 C 12.132812 -3.609375 11.972656 -3.242188 11.734375 -2.921875 C 11.492188 -2.609375 11.195312 -2.335938 10.84375 -2.109375 C 10.5 -1.878906 10.117188 -1.726562 9.703125 -1.65625 L 5 -0.859375 C 4.582031 -0.785156 4.171875 -0.796875 3.765625 -0.890625 C 3.367188 -0.992188 3.003906 -1.15625 2.671875 -1.375 C 2.347656 -1.601562 2.070312 -1.894531 1.84375 -2.25 C 1.613281 -2.601562 1.460938 -2.988281 1.390625 -3.40625 Z M 1.390625 -3.40625 "/></g></g></g><g fill="#ffffff" fill-opacity="1"><g transform="translate(134.329665, 65.316025)"><g><path d="M 6.859375 -16.078125 C 6.941406 -16.085938 7.023438 -16.070312 7.109375 -16.03125 C 7.203125 -15.988281 7.269531 -15.929688 7.3125 -15.859375 L 11.484375 -9.015625 C 11.523438 -8.953125 11.566406 -8.863281 11.609375 -8.75 C 11.648438 -8.632812 11.675781 -8.535156 11.6875 -8.453125 L 12.71875 -2.46875 C 12.75 -2.269531 12.664062 -2.15625 12.46875 -2.125 L 11.46875 -1.953125 C 11.28125 -1.921875 11.171875 -2.003906 11.140625 -2.203125 L 10.46875 -6.109375 L 2.8125 -4.796875 L 3.484375 -0.890625 C 3.515625 -0.691406 3.429688 -0.578125 3.234375 -0.546875 L 2.21875 -0.375 C 2.019531 -0.34375 1.90625 -0.425781 1.875 -0.625 L 0.84375 -6.609375 C 0.832031 -6.691406 0.828125 -6.789062 0.828125 -6.90625 C 0.828125 -7.03125 0.835938 -7.128906 0.859375 -7.203125 L 2.53125 -15.046875 C 2.550781 -15.128906 2.597656 -15.203125 2.671875 -15.265625 C 2.742188 -15.335938 2.816406 -15.378906 2.890625 -15.390625 Z M 10.203125 -7.6875 L 10.109375 -8.1875 L 6.359375 -14.328125 L 3.96875 -13.921875 L 2.453125 -6.875 L 2.546875 -6.375 Z M 10.203125 -7.6875 "/></g></g></g><g fill="#ffffff" fill-opacity="1"><g transform="translate(148.61122, 62.881307)"><g><path d="M 6.859375 -16.078125 C 6.941406 -16.085938 7.023438 -16.070312 7.109375 -16.03125 C 7.203125 -15.988281 7.269531 -15.929688 7.3125 -15.859375 L 11.484375 -9.015625 C 11.523438 -8.953125 11.566406 -8.863281 11.609375 -8.75 C 11.648438 -8.632812 11.675781 -8.535156 11.6875 -8.453125 L 12.71875 -2.46875 C 12.75 -2.269531 12.664062 -2.15625 12.46875 -2.125 L 11.46875 -1.953125 C 11.28125 -1.921875 11.171875 -2.003906 11.140625 -2.203125 L 10.46875 -6.109375 L 2.8125 -4.796875 L 3.484375 -0.890625 C 3.515625 -0.691406 3.429688 -0.578125 3.234375 -0.546875 L 2.21875 -0.375 C 2.019531 -0.34375 1.90625 -0.425781 1.875 -0.625 L 0.84375 -6.609375 C 0.832031 -6.691406 0.828125 -6.789062 0.828125 -6.90625 C 0.828125 -7.03125 0.835938 -7.128906 0.859375 -7.203125 L 2.53125 -15.046875 C 2.550781 -15.128906 2.597656 -15.203125 2.671875 -15.265625 C 2.742188 -15.335938 2.816406 -15.378906 2.890625 -15.390625 Z M 10.203125 -7.6875 L 10.109375 -8.1875 L 6.359375 -14.328125 L 3.96875 -13.921875 L 2.453125 -6.875 L 2.546875 -6.375 Z M 10.203125 -7.6875 "/></g></g></g><g fill="#ffffff" fill-opacity="1"><g transform="translate(162.892775, 60.446588)"><g><path d="M 11 -12.59375 C 11.03125 -12.40625 10.945312 -12.296875 10.75 -12.265625 L 9.734375 -12.09375 C 9.546875 -12.0625 9.4375 -12.140625 9.40625 -12.328125 L 9.234375 -13.3125 C 9.160156 -13.726562 8.957031 -14.050781 8.625 -14.28125 C 8.289062 -14.519531 7.921875 -14.601562 7.515625 -14.53125 L 2.8125 -13.734375 C 2.40625 -13.660156 2.082031 -13.453125 1.84375 -13.109375 C 1.601562 -12.773438 1.519531 -12.398438 1.59375 -11.984375 L 3 -3.671875 C 3.070312 -3.265625 3.273438 -2.941406 3.609375 -2.703125 C 3.953125 -2.472656 4.328125 -2.394531 4.734375 -2.46875 L 9.4375 -3.265625 C 9.84375 -3.335938 10.160156 -3.535156 10.390625 -3.859375 C 10.628906 -4.179688 10.722656 -4.539062 10.671875 -4.9375 L 10.5 -5.953125 C 10.488281 -6.023438 10.503906 -6.097656 10.546875 -6.171875 C 10.597656 -6.242188 10.660156 -6.285156 10.734375 -6.296875 L 11.75 -6.46875 C 11.832031 -6.488281 11.90625 -6.46875 11.96875 -6.40625 C 12.039062 -6.351562 12.082031 -6.289062 12.09375 -6.21875 L 12.265625 -5.203125 C 12.335938 -4.785156 12.320312 -4.378906 12.21875 -3.984375 C 12.113281 -3.597656 11.945312 -3.242188 11.71875 -2.921875 C 11.488281 -2.609375 11.195312 -2.335938 10.84375 -2.109375 C 10.5 -1.878906 10.117188 -1.726562 9.703125 -1.65625 L 5 -0.859375 C 4.582031 -0.785156 4.171875 -0.796875 3.765625 -0.890625 C 3.367188 -0.992188 3.007812 -1.160156 2.6875 -1.390625 C 2.375 -1.617188 2.097656 -1.90625 1.859375 -2.25 C 1.628906 -2.601562 1.476562 -2.988281 1.40625 -3.40625 L 0 -11.71875 C -0.0703125 -12.144531 -0.0625 -12.5625 0.03125 -12.96875 C 0.132812 -13.375 0.296875 -13.734375 0.515625 -14.046875 C 0.742188 -14.367188 1.03125 -14.644531 1.375 -14.875 C 1.726562 -15.113281 2.113281 -15.269531 2.53125 -15.34375 L 7.234375 -16.140625 C 7.648438 -16.210938 8.054688 -16.195312 8.453125 -16.09375 C 8.859375 -15.988281 9.222656 -15.820312 9.546875 -15.59375 C 9.867188 -15.375 10.144531 -15.085938 10.375 -14.734375 C 10.613281 -14.390625 10.765625 -14.003906 10.828125 -13.578125 Z M 11 -12.59375 "/></g></g></g></svg>